<svg xmlns="http://www.w3.org/2000/svg" xmlns:xlink="http://www.w3.org/1999/xlink" viewBox="0 0 2000 2000"><defs><style>.cls-1{fill:#fff;}.cls-2,.cls-8{fill:#ffece5;}.cls-3{fill:none;}.cls-3,.cls-8{stroke:#000;stroke-linecap:round;stroke-linejoin:round;stroke-width:5px;}.cls-4{fill:#0ebdff;}.cls-5{fill:#ff9e9f;}.cls-6{fill:#f06d57;}.cls-7{fill:#163342;}.cls-9{fill:#f4e12c;}.cls-10{mask:url(#mask);}</style><mask id="mask" x="397.77" y="1001.95" width="1443.23" height="436.15" maskUnits="userSpaceOnUse"><path class="cls-1" d="M488.56,1013.55c67-28,152-4.53,210.76,61.44,6.63.71,52.49,6.33,74,44a80.33,80.33,0,0,1,9.92,30.91L1499,1200c12.9-36.09,46.39-60.22,83-60.33,31.3-.1,60.59,17.37,76.67,45.33,3.12-7.3,17.46-38.7,48.66-47.33,0,0,22.85-6.32,50,6,47,21.3,66.12,139.86,56,292l-1192,0a456.49,456.49,0,0,1-126-101.64c-38.7-44.85-123.17-142.76-90-235.33C426.14,1040.6,481.88,1016.33,488.56,1013.55Z"/></mask></defs><g id="_10" data-name="10"><rect class="cls-2" width="2000" height="2000"/><path class="cls-1" d="M1300.17,1368.47q2.47-284,4.94-568l-43.22-3.7c-9.07-24.55-33-99-3.7-182.74,35.07-100.34,131-169.46,233.36-177.79,138-11.24,226.82,92.9,244.47,113.59,79,92.66,116.13,244.68,49.38,350.65-22.57,35.84-52.16,58.69-75.31,72.85q29,246.93,58,493.88l-118.53,38.27Z"/><path class="cls-3" d="M1599.43,449.55l51.8,46.44L1582,507.13,1603.26,554A324,324,0,0,0,1541,591.65a309,309,0,0,0-74.38,82.57"/><path class="cls-3" d="M1451.93,469.28,1410.53,504l22.26,6.43-47.87,47.27a338.25,338.25,0,0,0,6.71,58.46,343.75,343.75,0,0,0,30.6,87.26"/><path class="cls-4" d="M1485.61,471.84c30.87-21.19,60.8-28.61,74.63-17.9a20.56,20.56,0,0,1,6.38,8.57h0a437.66,437.66,0,0,0-66.53,73.56A417.89,417.89,0,0,0,1445,642.4a204.64,204.64,0,0,1,5.55-105.25A212.89,212.89,0,0,1,1485.61,471.84Z"/><path class="cls-5" d="M1474.5,487.52q1-24.06,2.06-48.13a53.35,53.35,0,0,1-11.77-1.54,52.54,52.54,0,0,1-14.24-5.86c-8-5.08-12.11-12.63-15.19-19.86-3.26-7.63-11.09-28.64-11.12-92.22,0-8.52.13-20.86,5.71-35.36a85.54,85.54,0,0,1,8.67-16.74l110.9,13.26,60.42,59.32c9.79,18.44,5.38,39.6-9,50.64s-32.77,7.4-35.33,6.86q.51,32.31,1,64.62l-25.48,21.65c-5.81,1.13-12,2.11-18.56,2.85A237.79,237.79,0,0,1,1474.5,487.52Z"/><path class="cls-3" d="M1402.34,1391.61c2.77-379.74,17.53-657.65,32.32-714.71a490.73,490.73,0,0,1,22.44-65.29,428.34,428.34,0,0,1,109.52-149.1"/><path class="cls-3" d="M1592.38,356.92,1569.33,362l17.51,14.62"/><path class="cls-3" d="M1465,404.33a30.37,30.37,0,0,0,13.51,4.47,32.09,32.09,0,0,0,20.32-5.46"/><path class="cls-6" d="M1563.25,338.65a32.76,32.76,0,0,1,23.62-9.06c16.31.72,24.42,13.89,24.94,14.76a73.29,73.29,0,0,0,6.29-38.59c-3.78-31.9-29.17-50.29-36.84-55.85-43-31.22-113.32-28.17-137.59,5.55a50.66,50.66,0,0,0-7.76,16.68c9.39,10.25,35.42,35.81,76.9,43.14a132,132,0,0,0,48.29-.55l-6,24.2Z"/><path class="cls-3" d="M1485.72,381l-24.54.14a76.36,76.36,0,0,0,13.47-47.2,47.69,47.69,0,0,0-13.08-4.24,50.37,50.37,0,0,0-29.86,4.49"/><path class="cls-3" d="M1496.19,332.65a38.7,38.7,0,0,1,17.4-5.5,39.7,39.7,0,0,1,25.41,7.52"/><path class="cls-5" d="M1567.05,923.9c-18.44,11-35.79,13.68-42.14,6.9-8.08-8.62,2.78-31.37,11.62-42.5,33.88-42.65,123-21.5,137.91-17.78l21,58.68,14.67,41a78.36,78.36,0,0,1-34,10.37,76.89,76.89,0,0,1-22.71-1.94c-21.78,22.32-44.79,29.52-52.13,23-7-6.17-3-27.47,11.62-49.4-24.65,22.75-50,28.2-57.76,20.34C1548,965.43,1552.75,944.55,1567.05,923.9Z"/><path class="cls-3" d="M1598.74,997.72A95.1,95.1,0,0,1,1616,948.85a92.91,92.91,0,0,1,23-22.53"/><path class="cls-3" d="M1551.71,957.91a95.1,95.1,0,0,1,23.38-46.25,93.19,93.19,0,0,1,25.72-19.38"/><path class="cls-3" d="M1710.09,973.37l-46.51-131.7a133.33,133.33,0,0,0,30.46-42,131.5,131.5,0,0,0,7.82-22.23"/><path class="cls-7" d="M1349,894.72l-166.14-26.8a15.15,15.15,0,0,1-12.31-11.4l-65.73-272.46A15.13,15.13,0,0,1,1122,565.57l166.14,26.79a15.15,15.15,0,0,1,12.3,11.4l65.74,272.46A15.15,15.15,0,0,1,1349,894.72Z"/><path class="cls-4" d="M1337.16,908.08,1171,881.28a15.13,15.13,0,0,1-12.31-11.39L1093,597.43a15.14,15.14,0,0,1,17.12-18.5l166.14,26.8a15.13,15.13,0,0,1,12.31,11.39l65.73,272.47A15.13,15.13,0,0,1,1337.16,908.08Z"/><path class="cls-5" d="M1144.69,681.26c15.67-14.67,23.06-30.6,18.31-38.58-5.88-9.87-29.65-6.5-44.06-.61-40.47,16.53-77.13,81.54-52.38,134.21,21.87,46.53,78.12,54.62,83,55.25a78.36,78.36,0,0,0,19.4-29.85,77,77,0,0,0,4.43-22.35c27.49-14.74,40.78-34.85,36.56-43.71-4-8.41-25.55-10.52-50.69-2.53,28.69-17.38,41-40.21,35.55-49.86C1189.88,674.47,1168.49,673.24,1144.69,681.26Z"/><path class="cls-3" d="M1206.84,732.17a95.07,95.07,0,0,0-51.74,3,92.74,92.74,0,0,0-28,15.86"/><path class="cls-3" d="M1181.61,675.94a95.2,95.2,0,0,0-50.91,9.65A93,93,0,0,0,1105,704.94"/><path class="cls-8" d="M717.68,1407.75l-220.5-.08a12.31,12.31,0,0,0-10.95,6.65,127.42,127.42,0,0,0-13.76,48.38,12.3,12.3,0,0,1-12.28,11.3H443a12.31,12.31,0,0,0-12.32,12.32v263.31A12.33,12.33,0,0,0,443,1762h34.73a12.32,12.32,0,0,0,12.32-12.34q-.06-41-.13-81.94a12.32,12.32,0,0,1,12.32-12.34H717.68"/><path class="cls-8" d="M78.67,1779.75V897.65A12.32,12.32,0,0,1,91,885.33H621a12.32,12.32,0,0,1,12.31,12.32v528.12a12.32,12.32,0,0,0,12.33,12.32l1212.74-.42a12.31,12.31,0,0,1,10.95,6.65,127.42,127.42,0,0,1,13.76,48.38,12.29,12.29,0,0,0,12.27,11.3h17.19a12.32,12.32,0,0,1,12.32,12.32v263.31a12.33,12.33,0,0,1-12.32,12.32h-34.73a12.32,12.32,0,0,1-12.32-12.34q.06-41,.13-81.94a12.32,12.32,0,0,0-12.32-12.34l-1698,0A12.32,12.32,0,0,0,143,1697.67v82A12.31,12.31,0,0,1,130.71,1792l-39.7.1A12.32,12.32,0,0,1,78.67,1779.75Z"/><path class="cls-8" d="M1663.21,1437.75l-220.5-.08a12.31,12.31,0,0,0-11,6.65A127.42,127.42,0,0,0,1418,1492.7a12.29,12.29,0,0,1-12.27,11.3h-17.19a12.32,12.32,0,0,0-12.32,12.32v263.31a12.33,12.33,0,0,0,12.32,12.32h34.73a12.32,12.32,0,0,0,12.32-12.34q-.06-41-.13-81.94a12.32,12.32,0,0,1,12.32-12.34h215.43"/><path class="cls-3" d="M1893.06,1503.78l-1260.39.08L96,1306.67"/><path class="cls-8" d="M96,885.33v906.61"/><path class="cls-8" d="M646.5,1438,96,1224"/><path class="cls-8" d="M185.74,838h408c35.06,0,64.7,20.53,69.31,48l54.31,323.58c5.56,33.13-27,62.56-69.31,62.56h-408c-35.06,0-64.7-20.53-69.31-48L116.43,900.52C110.87,867.39,143.47,838,185.74,838Z"/><rect class="cls-8" x="379.08" y="363" width="26.52" height="474.97" rx="8.5"/><path class="cls-9" d="M394.8,1167.76c-13.11-46.92-32-125.41-37.34-212.11-2.57-42-2.79-99.7,30.12-139.82,1.22-1.49,2.25-2.67,2.44-2.88,38.84-43.67,99.72-44.61,116.42-44.33a72.72,72.72,0,0,1,28.3,1.8c28.36,7.63,42.66,30.59,46.33,36.69,12.14,20.18,11.95,39.44,11.76,58.66-.29,29.49-3,44.14-18,76.67-15.24,33.2-30.67,95.19-29.08,221.94Z"/><path class="cls-4" d="M488.56,1013.55c67-28,152-4.53,210.76,61.44,6.63.71,52.49,6.33,74,44a80.33,80.33,0,0,1,9.92,30.91L1499,1200c12.9-36.09,46.39-60.22,83-60.33,31.3-.1,60.59,17.37,76.67,45.33,3.12-7.3,17.46-38.7,48.66-47.33,0,0,22.85-6.32,50,6,47,21.3,66.12,139.86,56,292l-1192,0a456.49,456.49,0,0,1-126-101.64c-38.7-44.85-123.17-142.76-90-235.33C426.14,1040.6,481.88,1016.33,488.56,1013.55Z"/><g class="cls-10"><path class="cls-1" d="M765.11,1096.22a122.43,122.43,0,0,0-44.44,6.22,124.24,124.24,0,0,0-41.35,24,172.84,172.84,0,0,0-37.65,6.55c-145.84,42.54-189,268.06-195.67,305.09l1388-.41q3.49-151.85,7-303.68c-65.85-10.77-118.37-18-149-22C1146.69,1040.38,865,1099.48,765.11,1096.22Z"/></g><path class="cls-3" d="M711.82,1077.13c8.15,2,48.92,13,65.32,49.5a76,76,0,0,1,6.2,23.28l238.36,16.69L1499,1200c12.9-36.09,46.39-60.22,83-60.33,31.3-.1,60.59,17.37,76.67,45.33a88,88,0,0,1,15.42-24.18c5-5.56,16.79-18.67,35.24-23.6,29.27-7.82,54.82,10.45,58.2,12.94,24.32,18,30.56,47.22,34.2,67.3,14.94,82.42,15.58,173.52,14.94,220.21"/><path class="cls-3" d="M651.61,1100.87c5.41,3.06,29.43,17.4,37.33,46.67,7.8,28.88-3.19,60.86-28,81.78"/><path class="cls-1" d="M497.61,1274.81A491.72,491.72,0,0,0,462.67,1340q-4.32,9.74-8,19.13a139.14,139.14,0,0,0,0,102.09c21.1,53.37,81.78,92.37,63.32,160.11,61,10.73,164.33-185.66,164.33-185.66Z"/><path class="cls-3" d="M525.4,1365.05l156.93,73"/><path class="cls-3" d="M1569,1166a102.38,102.38,0,0,0-59,86q1,62.67,2,125.33"/><path class="cls-4" d="M532,1175.56l102,99a102.61,102.61,0,0,0,47.86,26.26q24.67,5.84,50.81,11.16,34,6.9,66,12,2,55.83,3.94,111.67H682.33A551.5,551.5,0,0,1,471,1305a408.12,408.12,0,0,1,61-129.44Z"/><path class="cls-5" d="M800.06,1362.66a339,339,0,0,1,38.61-.66c27.46,1.1,54,2.16,79.33,13.67,11.74,5.32,40.19,20.57,62.33,60.33l-177.72-.33Z"/><path class="cls-3" d="M857.56,1399.33a93.9,93.9,0,0,1,32.88,4.23c25.84,8.17,41.06,25.51,47.12,33.33"/><path class="cls-5" d="M485.93,1055.32c-4.72-26.54-6.84-48.64-14.75-72.32-5.14,2.87-20,13-37.2,10.39-17.93-2.73-31.34-11.87-34.92-36.59-3.23-22.34,7.27-40.92,24.09-48.2,5.13-2.22,17.16-2.46,20.52-2.7,22.1-1.45,61.85-89,65.82-109.51a75.82,75.82,0,0,1,31.64,3.91c6.37,2.24,23.13,8.4,34.86,25.73a65.47,65.47,0,0,1,10.74,29.66c1.87,17.07,3.63,31.49,5,42.42,4.18,32.85,6.06,42.28,1.64,54.46-4.92,13.53-14.77,22.58-22.82,28.28l21.27,63.57c0,7.16-2,12-4.18,15.28C576.2,1077,527,1070.87,485.93,1055.32Z"/><path class="cls-3" d="M577.4,866.59A25.87,25.87,0,0,0,560,862.65a26.22,26.22,0,0,0-17.46,10.83,53.2,53.2,0,0,0,3.5,11.48,55.76,55.76,0,0,0,17.73,22.16l-6.87,13.11"/><path class="cls-3" d="M572.42,939.26c.38,7.16-12.44,28.61-43.06,8.13"/><path class="cls-3" d="M520.82,874.25a36.33,36.33,0,0,0-43.71,9.43"/><path class="cls-3" d="M416.62,939.82l32.71,6.67-14.59,27.29"/><rect class="cls-8" x="520.11" y="108" width="469" height="484.48" rx="26.17"/><rect class="cls-8" x="538.22" y="126.71" width="432.78" height="447.06" rx="26.17"/><polygon class="cls-8" points="971 339.99 764.53 339.99 764.53 126.71 744.69 126.71 744.69 339.99 538.22 339.99 538.22 360.49 744.69 360.49 744.69 573.77 764.53 573.77 764.53 360.49 971 360.49 971 339.99"/><path class="cls-2" d="M398,621.29H317.75a11.49,11.49,0,0,1-11.44-12.58l14.49-153a11.49,11.49,0,0,1,11.44-10.41h80.24a11.49,11.49,0,0,1,11.44,12.58l-14.48,153A11.5,11.5,0,0,1,398,621.29Z"/><path class="cls-4" d="M317.33,507.25h100Q412.92,559.12,408.5,611a10.82,10.82,0,0,1-2,4.67,11.13,11.13,0,0,1-5.33,3.83l-84.67.83a10.79,10.79,0,0,1-7.17-4.33,10.65,10.65,0,0,1-1.83-7Q312.42,558.12,317.33,507.25Z"/><path class="cls-3" d="M398,621.29H317.75a11.49,11.49,0,0,1-11.44-12.58l14.49-153a11.49,11.49,0,0,1,11.44-10.41h80.24a11.49,11.49,0,0,1,11.44,12.58l-14.48,153A11.5,11.5,0,0,1,398,621.29Z"/><path class="cls-8" d="M330.23,466l92.9.26"/><path class="cls-8" d="M374.67,454.67A4.67,4.67,0,1,1,370,450,4.67,4.67,0,0,1,374.67,454.67Z"/><path class="cls-3" d="M363.56,435.33c-2.91,5-2.92,10.84,0,14.89a12.29,12.29,0,0,0,6.44,4.45"/><line class="cls-3" x1="966.88" y1="292" x2="764.53" y2="292"/><path class="cls-3" d="M744.69,292H595.93s17.8-46.74,42.74-42.75,31.64,18.56,31.64,18.56,24.77-52.48,74.38-51.48"/><path class="cls-3" d="M764.53,216.31c22.78,7,33.63,30.73,33.63,30.73s13.09-67.62,74.94-61.64S936,239.27,936,239.27s25.2-47.88,35-47.88"/><path class="cls-8" d="M348,1103.55c2.66,29.26,26.92,120,60.3,140.78-47-11.76-106.41-68.77-106.41-68.77"/></g></svg>