<svg xmlns="http://www.w3.org/2000/svg" viewBox="0 0 1000 800"><defs><style>.cls-1{fill:#abdddf;stroke:#abdddf;stroke-width:3px;}.cls-1,.cls-2,.cls-3,.cls-4,.cls-5{stroke-linecap:round;stroke-linejoin:round;}.cls-2{fill:#fab550;stroke:#fab550;}.cls-2,.cls-3,.cls-4,.cls-5{stroke-width:4px;}.cls-3{fill:none;}.cls-3,.cls-5{stroke:#442257;}.cls-4{fill:#f15d4a;stroke:#f15d4a;}.cls-5{fill:#442257;}</style></defs><g id="Layer_2" data-name="Layer 2"><path class="cls-1" d="M218.52,316.7c4.26-6.79,10.93-7.83,16.13-7.13,4.51.61,6.45,5.17,3.41,8.63-3.5,4-7.22,5.22-7.53,9.49l1.17,0c6.2,0,22.73-.53,26-.63a11.52,11.52,0,0,0-1.11-4.18c-1.44-3-5.33-5.39-8.41-6.53-2.06-.76-5.58-1.74-6.19-4.22-1.39-5.67,5.92-8.27,9.77-8.38,7.24-.22,13.65,6.35,16.39,12.11a38.31,38.31,0,0,1,3.44,10.89l1,0,5.49-.12-.11.5c4.75,27.86,45.26,33.28,64.44,39.28s35.78,15.94,41.26,25.07c8.62,14.33,9.37,23.78,9.37,23.78v1.63q6.54-2.89,13-5.43l.4-.09c1.14-2.35,3.72-4.35,8.21-5.79a39.41,39.41,0,0,1,11.71-1.37c4.55,0,5.79-.77,7.78,2.73l3.18-1c-.13-.23-.26-.45-.38-.68a21.05,21.05,0,0,1,3-3.54l-.25-.74c-13.76-28.06-33.36-33-44.39-37.8-10.47-4.53-28.51-10.56-39.08-15.6-8.08-3.86-17.89-13.28-20.74-21.4v-.37l11.32-.08c10.63,0,23.62-.19,50-.19s5.41-36.71-8.56-50.63c-8.52-8.49-19-15.54-30.54-13-19.36,4.29-14.14,23.26-13.78,39.51-8.49-13.06-29.69-60-51.93-55.23-13.21,2.83-7.77,25.61-4,33.8-11.4-14.07-61.25-34.51-79.61-23.53-20,11.94,6.42,28.3,22.76,40.57-11.69-5.9-17.95-7-31-5.63-10.81,1.17-20.87,3.81-23.12,15.74-2.63,13.92,8.62,20,21.69,20,4.71,0,9.17.14,15.13.28l1,0C214.9,324.09,216,320.68,218.52,316.7Z"/><path class="cls-1" d="M821.9,267.46c-4.12-16.73-39.83-16.24-51.94-8.8,11.41-10,20.06-29.84,11.51-42.21s-20.57-14.8-38.34-12.76-31.11,9.7-56.43,26.74c13.18-24,7.82-67.78-26.64-67.94-23.56-.11-46.51,10.29-58.27,23.47-4.27-9.2-13.31-21.13-30.7-24.86-20.74-4.45-36.44,2.59-42.82,10.46s.06,25.34,4.87,34.17,20.07,23.19,40.91,35.17c-18.79-8.62-33.39-11-50.2-12-16.33-.93-30.35-.39-46.56,2.84-5.47,1.09-16.31,2.81-16.72,9.74-.56,9.5,22.56,12.19,29.56,13.91-14.57-3.2-57.14-.66-58.38,20.47C431,287.83,442.94,292,449.94,293a15.5,15.5,0,0,1,9.54-10c12.91-4.79,28.13-3.7,40.63,1.8,5.9,2.6,8.93,7.79,10.3,13.57h0c23-.7,45.9-1,68.83-1.27,7.1,21.67,2.61,43.93-5.69,62.78-10.88,24.73-40.42,26.92-59.68,42.1h0a7.86,7.86,0,0,1,1.84,5.33l2.77.83c3.31-3.15,8.59-3.46,13.55-2.44,4.32.89,10.47,1.55,11.75,5.56l.24-.07a120.83,120.83,0,0,1,12.79,4h.07c9.29-10.07,17-18.08,25.5-25.82,29.14-26.67,50.85-48.75,85.14-66.93,20.59-10.92,29.71-16.66,40.82-27.79h0c19.77-.83,39.54-2,59.32-3.73C781.71,289.76,827.68,290.91,821.9,267.46ZM657.71,296.11c-.75,8.85-3.46,17.79-9.89,24a279.38,279.38,0,0,1-25,20.88c-7.08,5.28-15.06,11.75-21,18.2,6.42-8,10.44-20.69,14.42-30.13,4.75-11.25,7.62-22.11,7.75-31.92v-.45c12.93-.15,18.86-.33,31.78-.6Z"/><path class="cls-2" d="M615.45,730.6c2.67,7.52,17.21,10.77,21.65,2.62,5.31-9.73-8.74-15.42-17-14.88-8.6-19.2-16.15-33.35-36.59-44.08-25.8-13.55-52.36-19.91-82.07-19.86-31,.06-63.37,1.16-94.08,4.58-22.42,2.49-44.49,9.2-62.2,22.38-10,7.43-22.56,22.61-20.71,35.22-7.07-.54-14.66,10.68-9.78,15.67,4.54,4.63,13.62.55,18.25-1.65,31.35,8.6,71.72,8,104.75,9.68,44.37,2.3,89.31.25,133.29-1.8C582.67,737.94,607.88,740.21,615.45,730.6Z"/><path class="cls-3" d="M359.34,709.58c34.29-19.85,76.7-28,116.68-28,26.62,0,52.89,2.74,78.34,10.55,11.46,3.52,24,11.26,33.78,17.22"/><path class="cls-3" d="M447.31,663.36a114.3,114.3,0,0,1,30.24,8.87"/><path class="cls-3" d="M483.27,663.76c4.76,1.11,8.9,3.43,13.3,5.44"/><path class="cls-3" d="M621.53,728.34a9.48,9.48,0,0,0,5.1,3.4"/><path class="cls-3" d="M322.38,728.34a5.2,5.2,0,0,0,3.4-2.55"/><path class="cls-3" d="M323.93,717.29c.26,4.64,2.09,10.24,6.8,11.9"/><path class="cls-3" d="M617.85,731c2.94-2.68,4.81-5.93,4-9.88"/><path class="cls-4" d="M481.25,418.19l-3-2.93-1.89,2c-1.69,2.6-4.44,6.16-7.94,8.22,2.6,7.53,14.14,11.6,21,1.09A43.55,43.55,0,0,1,481.25,418.19Z"/><path class="cls-4" d="M476.51,474.65a10.87,10.87,0,0,1,.52,2.18l0-.28c1-2.34,5.85-8.93,11.95-17.83l.94-2c-.43-4.91-2.36-9.52-3.77-13.46-.93-2.57-3.78-10.9-3.78-10.9l-7.66-.39c-1.35,5-8,19.9-9.7,25.78C469.37,463.21,474.77,469.87,476.51,474.65Z"/><path class="cls-3" d="M509.5,396.48s.3-25,.46-29.78c3.58,3.09,9.06,3.23,11.56-4.18,1.1-3.23,1.48-7.19-1.29-9.42s-5.89-1.72-8.75-1c.15-4.5.27-9,.28-13.57,0-13.82.08-18.93-.4-32.79-.29-8.38-2.91-17.23-11.25-20.9-12.5-5.5-27.72-6.59-40.63-1.8-8.59,3.18-10.62,11.14-11.48,19.49-1.06,10.25-1.52,12.89-2,23.21-.39,8.22-.48,16.47-.43,24.74-6.38-1.51-13.89-.51-12.95,9.16,1,10,7.78,9,13.13,4.92.23,12.21.58,19.5.54,31.7"/><path class="cls-3" d="M468.86,350.48a17.28,17.28,0,0,0,9.84,2.84c4.25,0,8.06-1.53,9.16-2.45"/><path class="cls-3" d="M437,405.24c2.07-3.32,6.38-6.15,8.45-9.44,7.05,5.68,32.84,18.18,32.84,18.18s13.38-7,18.85-9.65c4.34-2.09,8.22-5.05,12.53-7.25,3.05,3.43,6.8,7,6,10.75-.92,4.36-4.21,8.55-6.17,12.48a17.67,17.67,0,0,1-10,8.84c-9.71,3.38-21.23-15.17-21.23-15.17s-9.8,20.28-22.57,10.44C449,419.21,441,412.9,437,405.24Z"/><path class="cls-3" d="M492.26,512.37c.65-3.51,5.6-11.2,7.52-14.26,5.19-8.3,10.28-16,15.8-24.07s13.16-16.54,14.91-26.3c.82-4.63-1.43-14.31-7.38-9.46,6-5.31,20.52-15.58,20.92-25.09.24-5.71-7.07-6.42-12-7.43-6.25-1.28-13-.47-15.69,5.49-4.57,10.25-6.34,20.55-9.58,31a277,277,0,0,0-8.49,32.86c-4.27,23.58-7.41,47.28-10.94,70.92-1,6.48-1.51,19.8-1.84,26.4"/><path class="cls-3" d="M460.23,572.8c-.62-3-1.08-25.73-1.39-31.36-.64-11.71-1-23.4-2.27-35.13-2-18.49-6.39-36.36-10.65-54.44-2.38-10.08-4.16-20.34-7.28-30.26-1.41-4.49-1.93-9.87-4.11-14s-3.32-3.39-8.13-3.37a39.41,39.41,0,0,0-11.71,1.37c-22.4,7.14,2.9,28.48,14.71,36.18-7.73-1.47-16.74,1-13.57,9.15,4.49,11.51,11.43,18.79,18.35,28.77,7.56,10.92,17.34,30,23.64,42"/><path class="cls-3" d="M523.85,462.43s11.91,1.13,18.58,2.34"/><path class="cls-3" d="M436.8,408.73c5.86,13.56,15.44,31.76,24.05,43.7,4.11,5.7,13.29,15.72,15.66,22.22,1.23,3.35.65,8.52.47,12-.34,6.89-1.18,13.6-1.53,20.49-.58,11.48-1.62,22.79-2.72,34.19-.5,5.17.12,6.34-4.29,6.68-3,.23-8.45-1.1-9.38-1"/><path class="cls-3" d="M477,476.55c2.29-5.23,23.44-31.52,35.61-57.56"/><path class="cls-3" d="M473.15,546.57c1.34,1.55,8,1.07,12.89,1"/><path class="cls-3" d="M468.73,503.3l0-1"/><path class="cls-3" d="M467.8,521.66l.05-1"/><path class="cls-3" d="M466.87,540l.05-1"/><path class="cls-3" d="M544,411.25c19.15,4.74,40.73,16,55.48,28.1,8,6.54,13.1,10.59,21.49,16.47,6.8,4.76,16.67,10.34,17.32,20,.11-3.24-1.13-10.87,3.77-10.94,5.42-.08,6.85,11.11,7.81,14.6-.71-6-1.06-20.59,9-11.77-12.5-4,17-45.17,22.27-55.7S696,386.86,696,386.86c3.39-.1,22.2,12,27,14.74,7.86,4.58,17,9,23.74,15-7.52,17.84-20,40.63-30.17,57.17C708.4,486.89,693,515,679.61,523.54c-12.73,8.17-24.66,6.69-38.61,5.24-8.41-.88-17.11-7.28-24.5-11.54-8.56-4.92-35.15-18.89-41.77-23.15-5-3.2-15.9-9.32-15.9-9.32s-.16,14.49-.16,21.3c0,4.76-.51,10-.62,14.63"/><path class="cls-3" d="M526.1,534.1c9.36-2.8,19.53-14.78,30.37-12.83,13.35,2.41-11,16.88-14.64,18.52,3.92-4.78,15.73-11.63,21.95-8.15.29,3.1-1.75,4.15-3.58,6.26-4,4.61-8.22,8.14-11.22,13.7"/><path class="cls-3" d="M699.15,387.33s5.59-10,9.51-14.83c11.46,2.47,36.54,20.67,38.91,24.08l-7.8,13.88"/><path class="cls-5" d="M440.41,571.78c-3.65,3.18-6.53,7.69-9.48,11-6.18,7-12.57,13.82-18.91,20.66-4.85,5.23-9.41,10.77-14.55,15.73-2.46,2.37-8.55,8.84-10.53,11.9s13.91.76,17.35-3.12c9.54-10.73,18.63-21.43,28-32.27,2.51-2.89,16.59-19.43,21.49-25.19a1.32,1.32,0,0,0-.91-2.17,38.51,38.51,0,0,0-5.84-.14A15.25,15.25,0,0,0,440.41,571.78Z"/><path class="cls-3" d="M412.1,619.11c-3.74,9-1,24.08,9.35,22.21,6.65-1.2,8.49-18.45,1.41-19.52-4.4-.67-3.48,4.84-2.06,7.49,6.18,11.56,18.73,2.61,14.2-8.1-2.1-5-10.18-9.74-14.78-11.46"/><path class="cls-3" d="M453.35,572.51c22.09,1.12,68.3,0,68.3,0"/><path class="cls-3" d="M669.5,528.21c13.08.34,32.91,1.5,44.7,6.39,12.19,5,21.64,12.5,26.55,25.34,6.16,16.12,3.78,35-5.35,49.54-5,7.94-11.86,15-21.26,16.9-10.41,2.11-21.38,4.52-32.09,4.91-30.36,1.11-60.79,1.63-91.19,3.14-26.49,1.31-54.14,1.3-82.08-1.72.94-14.46,5.16-26,7.21-36.44A186,186,0,0,1,522.14,573c1-2.77,1.84-6,4.82-7.21,4.79-1.9,15-1.4,20.32-1.64,22.08-1,43.63-3.67,65.68-4.51,23.3-.9,57.56-4,78.89,7.13-3.51-.74-10.53-5.63-8.82-8.82s7.78-1.14,11.77-.59"/><path class="cls-3" d="M562.68,535.46s38.76-4.45,49.66-5.31c9.64-.76,15.87-1.58,25.53-1.94"/><path class="cls-3" d="M435.5,622.61a239.28,239.28,0,0,0,34.2,2.24c10.88,0,38.84,1.46,38.84,1.46"/><path class="cls-3" d="M398.31,485c-3.1-.43-4.24,3.85-4.27,7.17,1.91-.43,4.1-1.53,6.3-1.15-7.91,1.44-6.88,10.71-7.18,17.24-.21,4.66-.39,12.68,2.25,16.51"/><path class="cls-3" d="M416.23,532c-4.38-2.23-26.81-12.3-28.5-4.41-1.07,5,6.41,7.57,9.87,9.16,6.41,3,10.87,6.86,16.54,11.23a72.63,72.63,0,0,1,10.19,10.47"/><path class="cls-3" d="M406.08,411.46a351.33,351.33,0,0,0-59.8,30.4c-7.67,4.9-14.13,10.79-16.74,19.87,1.06-2.93,4.15-9.44,1.17-11.93-3.28-2.72-8.22,1.35-9.78,4.12s.19,6.3,3.57,4.1c3.79-2.48,5.06-10.89,3.14-14.2-2.79-4.83-6.66-11.15-9.84-15.56-2.95-4.09-6.27-8-8.95-12.27-4.45-7.08-24.1-37.52-24.1-37.52s-25.61,14.77-36.29,21.72c-4.28,2.79-13.13,7.93-15.8,11.6,5.56,11.21,10.47,22.48,16.72,33.3,8.39,14.52,16.54,28.48,24.62,43.17a182.12,182.12,0,0,0,15.21,23.15c4.31,5.57,8.25,10.64,13.18,15.34,6.82,6.51,23.16,8.1,31.61,5.33,10-3.27,19.74-12.43,28.29-18.4,7-4.9,28.78-21.55,32.06-24.37"/><path class="cls-3" d="M236.85,406.17s-6.66-11.13-8.48-16.36c9.14-5.55,15.65-10.45,25-15.8,6.37-3.65,12.19-6.46,18.45-9.85,2.73,3.87,8.94,15.39,8.94,15.39"/><path class="cls-3" d="M265.63,365.15c-1.13-2-5.85-9.25-4.3-11.52,2.35-3.44,6.29-7.21,8.15-11.33,3.94-8.76,2.86-17.64-1.32-26.42-2.74-5.76-9.15-12.33-16.39-12.11-3.85.11-11.16,2.71-9.77,8.38.61,2.48,4.13,3.46,6.19,4.22,3.08,1.14,7,3.5,8.41,6.53,3.21,6.78-.67,13.08-7.16,16.39-6.93,3.54-15.46,1.32-18-6.28-3.05-9.09,2-9.53,6.63-14.81,3-3.46,1.1-8-3.41-8.63-5.2-.7-11.87.34-16.13,7.13s-4.58,12-2.39,18.06"/><path class="cls-3" d="M204.69,343.9c-1-10.76,13.35-10,19.44-6.84,2.77,1.44,7.87,4.25,9.21,7.79s.14,9.62-7.68,6.73"/><path class="cls-3" d="M207.71,356.07c6.95,3.95,25.47.86,15.23-8.46-4.58-4.17-25.22-5.78-22.3,5.51-6.94-3.11-28.09-3.15-22.44,6.14,3.25,5.32,10.15,3.46,15.56,3.68,5.6.23,17.64,3.09,22.12,6.46,4.73,3.56,11.34,8.44,17.1,17"/><path class="cls-3" d="M712.19,371.5c1-2.1,6.43-10.46,4.78-12.67-2.49-3.33-5.61-6.93-7.64-11-4.31-8.59-3.6-17.51.21-26.45,2.49-5.88,8.63-12.7,15.87-12.8,3.85,0,11.26,2.25,10.11,8-.51,2.5-4,3.63-6,4.48-3,1.27-6.82,3.79-8.13,6.88-2.92,6.9,1.22,13,7.84,16.07,7.07,3.24,15.5.67,17.73-7,2.67-9.22-2.39-9.45-7.24-14.53-3.18-3.33-1.43-8,3-8.76,5.17-.92,11.88-.16,16.42,6.45s5.07,11.76,3.14,17.94"/><path class="cls-3" d="M774.12,346.74c.55-10.79-13.75-9.42-19.7-6-2.71,1.55-7.69,4.57-8.88,8.16s.27,9.62,8,6.4"/><path class="cls-3" d="M771.62,359c-6.78,4.24-25.41,1.93-15.58-7.82,4.41-4.36,25-6.82,22.52,4.57,7-.86,27.94-4.31,22.67,5.2-3,5.46-10,3.88-15.39,4.33-5.58.46-17.49,3.82-21.83,7.38-4.57,3.76-11.94,12.78-17.34,21.52"/><path class="cls-3" d="M309.17,531c-12.85,0-24.71-1.82-30.3-1.42-6.63.48-33.2,2.37-40,3.74-21.69,4.34-30.86,18.75-33.77,38-1.54,10.19-2.35,22.67,3.11,32,5.17,8.78,18.15,12.5,27.37,14.56,14,3.14,28.64,3.59,43,4.32,29.55,1.5,114.08,2.08,114.08,2.08"/><path class="cls-3" d="M394.46,535.35c-5.7-1.62-27.11-3-43.43-3.7-3.74-.16-7.94-.25-13.82-.35"/><path class="cls-3" d="M275.09,546.68c-4.35,1.57-9.13.48-13.42-.69,1.88.7,9.17,2,9.65,5.74.91,7-15.8,5.8-19.57,8.55,3.83.53,8.22-1.55,11.94-2.42,5-1.16,9.9-1.66,14.94-2.47a135.88,135.88,0,0,1,28.7-1.13c33.77,1.63,48.5,2.33,82.11,5.6,6.09.6,12.31,1.28,18.22,2.37,1,7,.78,18.15.79,25.76,0,5.7-1.24,15.42-1.52,21.12"/><path class="cls-3" d="M408.8,572.24s21.89.68,29.59,1.5"/><path class="cls-3" d="M490.44,331.94c2.11,2.81,7.78,2.34,9.43-.68"/><path class="cls-3" d="M449.94,332.94c0,8.56,15.14,14.68,21.76,5.5,7.16-9.92-1.49-20.84-12.83-17.84C454.67,321.71,450,324.37,449.94,332.94Z"/><path class="cls-3" d="M506.94,333.09c0,8.57-15.23,14.6-21.8,5.39-7.1-10,1.61-20.83,12.94-17.77C502.26,321.84,507,324.53,506.94,333.09Z"/><line class="cls-3" x1="449.94" y1="330.98" x2="442.94" y2="331.5"/><path class="cls-3" d="M474.67,329.08a17,17,0,0,1,7.95,0"/><path class="cls-3" d="M466,331.87c-2.13,2.8-7.79,2.3-9.43-.73"/><line class="cls-3" x1="506.88" y1="331.13" x2="513.88" y2="331.69"/><path class="cls-3" d="M469.66,485l0-1"/><path class="cls-3" d="M556.26,485.13a4.54,4.54,0,0,0,5.1-2.71"/><path class="cls-3" d="M446.47,317.84c7.15-4.39,10-19.11,9.83-23.94,4.4,6.59,15.14,5.56,22.38,5.56,8,0,16.13-.7,23-4.4.43,5.6,3.91,17.25,8.64,22.78"/></g></svg>