<svg xmlns="http://www.w3.org/2000/svg" viewBox="0 0 2000 2000"><defs><style>.cls-1,.cls-10{fill:#ffece5;}.cls-2{fill:#0ebdff;}.cls-3{fill:#ff9e9f;}.cls-4,.cls-8,.cls-9{fill:none;}.cls-10,.cls-4,.cls-6,.cls-9{stroke:#000;stroke-linecap:round;stroke-linejoin:round;}.cls-4,.cls-6,.cls-8{stroke-width:4.62px;}.cls-5{fill:#f06d57;}.cls-6{fill:#fff;}.cls-7{fill:#163342;}.cls-8{stroke:#fff;stroke-miterlimit:10;}.cls-10,.cls-9{stroke-width:5px;}</style></defs><g id="_04" data-name="04"><rect class="cls-1" width="2000" height="2000"/><path d="M316.91,1847.45H631.2l27.06-124.53-191.73-.62L456.67,1747c-26.6.56-155.28,12.76-145.31,77.07C312.83,1833.53,314,1841.78,316.91,1847.45Z"/><path d="M1348.47,1847.45H1023.11l-27.06-124.53,191.73-.62,9.86,24.66c26.59.56,66.25,10.59,78.76,15.86,12.32,5.18,75.84,24,77.62,61.21A46.31,46.31,0,0,1,1348.47,1847.45Z"/><path class="cls-2" d="M406.42,1729.09l295,9.24c54.84-165.61,79.18-386.16,109.27-551.79,8.24-45.34,9.86-87.54,55.94-87.54,0,0,52.74,445.14,69.68,635.63l372.55-7.84c-65.35-271.88-166.64-602.89-232-874.76H612.64C543.9,1122.05,475.16,1459.06,406.42,1729.09Z"/><path class="cls-3" d="M1202.83,657.05l15.2-35.59a137.57,137.57,0,0,1,24.35-88.15l13.87-69c-1.36-6.41-10-48.42,2.78-54.25,3.6-1.64,7.68.13,10.79,1.54,22.71,10.26,27.57,43.44,28.36,49.32q1.07,24.66,2.15,49.32a11.3,11.3,0,0,0,9.56,1.54l66.27-17.26c3-.74,15.59-3.52,27.13,3.7,12.69,7.93,18.88,24.73,14.79,41.61a39.92,39.92,0,0,1,8.94,13.87c6.63,17.6-2,34-3.7,37,1.89,3.45,5.45,11.16,3.36,19.66-3.3,13.42-18.33,19.22-27.08,22.6a67,67,0,0,1-29,4.19,67.35,67.35,0,0,1-52.08,31.84q-2.38,6.81-4.78,13.63Z"/><path class="cls-4" d="M1363.11,516.25c-1.76.3-19.61,3.6-25.89,18.9-1,2.49-4.49,11-.65,17.23,6,9.8,25.31,7.13,38,5.38,19.8-2.73,35.65-4.91,42.33-17.88,7.5-14.55-2-32.12-3.7-35.14"/><path class="cls-4" d="M1364.09,559c-16.09,7.69-23.21,21.89-19.68,31.19.5,1.31,2.72,6.48,11.1,9.86,14.2,1.77,39.28,2.75,60.41-9.66,5.42-3.18,8.86-6.23,11.1-10.48,8.81-16.72-7.76-39.18-9.44-41.39"/><path class="cls-4" d="M1371.33,601.13c-3.92,2.68-23.76,16.59-20.86,26.5s28.23,12.49,46.75,6.16c2-.7,30.6-10.83,30.42-29.49-.07-7.25-4.46-13-7.74-16.45"/><path class="cls-4" d="M1301.57,523.13A117.45,117.45,0,0,1,1309,562c.64,36.75-16.51,63.56-24,74"/><path class="cls-5" d="M1173,651.36c-5.34-20.83-16.67-53.07-42.54-83.53-34.41-40.52-75.55-55.49-119.6-70.9-78.29-27.38-144.17-27.82-184.64-27.74-20.9,0-89.67,1.2-175.9,24.65-27.89,7.59-59.5,16.18-95,33.3-38.55,18.56-173.46,83.53-194.2,209.61-2.78,16.9-13.76,97.24,37.49,157,40,46.66,100.54,60.39,114.48,63.1a336.84,336.84,0,0,0,46.85,5.24,351.11,351.11,0,0,0,54.87-1.85l-.3-69.35H1075c3.11,3.73,60.24,70,141.44,57,70.21-11.17,104.79-73,109.16-81.08,7.41-13.77,13.67-40.19,25.89-92.48,7.75-33.16,13.6-60.53,17.42-78.91Z"/><path class="cls-4" d="M1363.52,694l-194.81-44.8-46.85,164.4"/><path class="cls-3" d="M753.2,427.68l-7.81,78.91c2.65,3.71,19.57,26.59,50.55,30,36.92,4.07,60.88-23.12,62.88-25.48q2.48-41.5,4.94-83a47.33,47.33,0,0,0,23.83-7c16-10.16,20.69-28.44,23.43-39.86,12.32-51.35-4.12-139.66-6.58-152.48-12.91-5.82-61.78-26-119.18-7.81a165.19,165.19,0,0,0-71.93,46.44l-20.55,64.12c-5.18.67-13.86,2.66-20.55,9.45-14,14.24-10.2,40.39.83,56.31,10.55,15.22,31.57,26.67,49.31,21a32.86,32.86,0,0,0,12.33-7.4Z"/><path class="cls-4" d="M881.63,291.64a43.37,43.37,0,0,0-50.75,9.25,53.7,53.7,0,0,0,17,41.3c-3.06,1.36-6.42,2.69-10.07,3.91a116.07,116.07,0,0,1-17.05,4.31"/><path class="cls-4" d="M747.24,309.52a62.22,62.22,0,0,1,54.87-7"/><path class="cls-6" d="M828.21,369.11c-18.45,1.6-34.06-8.72-38.64,0-4,7.59,11.31,27.76,30.83,31.65,17.4,3.46,37.33-6.19,43.36-21.37,2.25-5.68,4.09-16-1-20.55C856.83,353.57,847.09,367.48,828.21,369.11Z"/><path class="cls-4" d="M680.86,366.85l37.4-2.05-10.68,37.81"/><path d="M685.33,333.14c-3.44-2.18-16.78-11.2-20.08-27.53-3.87-19.07,7.53-40.39,28.77-51a168.67,168.67,0,0,1,46-51c10.48-7.62,57.44-41.73,116.72-30,11.22,2.22,66.11,13.08,81.38,56.3,7,19.74,6.34,50.05-11.1,70.28a57,57,0,0,1-12.21,10.61,77.55,77.55,0,0,0-8.75-31.57,79.27,79.27,0,0,0-30.83-31.44c-48-27.76-128.19-10.75-147.54,27.33-5.91,11.63-7,25.07-7,25.07-1.56,19.42,5.71,34.48,9.45,41.1q-3.49,4.32-7,8.63a36.56,36.56,0,0,0-18.91-15.62A35.84,35.84,0,0,0,685.33,333.14Z"/><rect class="cls-7" x="677.22" y="523.13" width="372.67" height="507.31" rx="20.34"/><path class="cls-8" d="M1011.17,797.46c-10.51-31.36-12.51-58.76-19-76.68-17.46-48.48-33.64-62.4-41.66-68.27-5.9-4.3-24.21-17.68-37.95-11.15-8.75,4.17-13.21,15.25-13.89,17-1.77,4.59-2.68,10.82-4.5,23.28-1.08,7.39-1.4,11.23-4.5,13.1-3.76,2.28-10.09.76-10.76.59a18.68,18.68,0,0,1-3.71-1.37v-13.3l-.72-79.55H852.6l-.71,79.55V694a18.81,18.81,0,0,1-3.72,1.37c-.66.17-7,1.69-10.76-.59-3.09-1.87-3.42-5.71-4.5-13.1-1.82-12.46-2.73-18.69-4.5-23.28-.68-1.77-5.13-12.85-13.88-17-13.74-6.53-32.06,6.85-37.95,11.15-8,5.87-24.2,19.79-41.67,68.27a387.52,387.52,0,0,0-19,76.68c-20.83,37.66-22.79,76.94-5.22,93.69,24.36,23.22,85.67,2.63,111.11-36.77,13.08-20.27,14.26-41.77,13.82-54q-.64-37.68-1.3-75.37a7.39,7.39,0,0,1,1.82-3.91c2.22-2.36,5.64-2.35,7.57-2.35,5.43,0,11.93-.24,19.82-.52,7.89.28,14.38.5,19.82.52,1.92,0,5.35,0,7.56,2.35a7.49,7.49,0,0,1,1.83,3.91q-.66,37.68-1.31,75.37c-.44,12.22.75,33.72,13.83,54,25.43,39.4,86.74,60,111.1,36.77C1034,874.4,1024.86,838.27,1011.17,797.46Z"/><path class="cls-3" d="M615,745.69a90.74,90.74,0,0,0,14.79-34.53c4.09-21.34-1.84-35.25,5.86-40.38,6.47-4.3,18,.6,24.35,6.48,8.7,8.1,9.13,19.66,9.56,31.13a87.62,87.62,0,0,1-6.48,36.06l13.87,9.87c9,0,22.22-.18,38.23-.93,39.44-1.85,59.49-5.55,66.08,4.93,2.62,4.17,2,8.85,1.85,10.18-3.43,26.69-73.17,37.29-77.49,37.91,4.12-1.16,63.09-17.24,75.54,3.49a13.5,13.5,0,0,1,2.05,6.78c.18,22.91-69.3,39.43-77,41.21,9.84-1.7,58-9.52,64.85,6.26,2,4.51-.11,9.4-.82,11.1-11.87,28-120.82,24.66-156.51,23Z"/><path class="cls-4" d="M454.82,738.6H614.5V928.48"/><path class="cls-4" d="M783.22,767.41a21.18,21.18,0,0,1-1.92,6.74,22.27,22.27,0,0,1-5.62,7.12c-11.61,10-27.76,14.86-27.76,14.86a369.54,369.54,0,0,1-43,10.13"/><path class="cls-4" d="M780,808.23a14.47,14.47,0,0,1,3.22,8.45c.06,4-1.84,9.51-13.79,17.85S746.52,846.31,736,849.46c-11,3.28-24.76,7.14-40.82,11.1"/><path class="cls-9" d="M1853.77,1746.67h-8.1a14.51,14.51,0,0,1-14.5-14.4q-.06-10.11-.13-20.21a14.52,14.52,0,0,0-14.49-14.41l-347.59-.3a14.5,14.5,0,0,0-14.51,14.34q-.12,10.32-.23,20.63a14.5,14.5,0,0,1-14.49,14.35h-8a14.5,14.5,0,0,1-14.5-14.5v-422a14.5,14.5,0,0,1,14.5-14.5h422a14.5,14.5,0,0,1,14.5,14.5v422A14.5,14.5,0,0,1,1853.77,1746.67Z"/><rect class="cls-9" x="1465.27" y="1337.67" width="352.01" height="313" rx="18.5"/><rect class="cls-10" x="1394.73" y="1257.67" width="494.54" height="51" rx="14"/><path class="cls-10" d="M1620.26,977.43,1645.17,965a19.86,19.86,0,1,0-17.77-35.52l0-.05-25,12.48a32.44,32.44,0,1,0,17.84,35.56Z"/><path class="cls-10" d="M1657.19,1257.67h185.07c0-36.13-36-65.86-82.26-69.74V992.4A81.47,81.47,0,0,0,1680.21,911,95.19,95.19,0,0,0,1562,876.59l77.73,173.78a95.18,95.18,0,0,0,51.89-115.54c27.66,7.48,48.39,38.14,48.39,74.86v178.19C1693.46,1191.57,1657.19,1221.4,1657.19,1257.67Z"/><path class="cls-10" d="M1740,1187.88l20,0"/><path class="cls-10" d="M1740,1173.63l20,0"/><path class="cls-10" d="M1740,1159.37l20,.06"/><path class="cls-10" d="M1740,1145.07l20,0"/><path class="cls-10" d="M1740,1130.82l20,0"/><path class="cls-10" d="M1740,1116.56l20,.06"/><path class="cls-10" d="M1740,1102.34l20,.05"/><path class="cls-10" d="M1740,1088.09l20,.05"/><path class="cls-10" d="M1740,1073.83l20,.06"/><path class="cls-10" d="M1740,1059.61l20,.05"/><path class="cls-10" d="M1740,1045.36l20,.05"/><path class="cls-10" d="M1740,1031.1l20,.06"/><path class="cls-10" d="M1740,1016.77l20,.06"/><path class="cls-10" d="M1740,1002.52l20,.05"/><path class="cls-10" d="M1739.4,989.8l19.78-3"/><path class="cls-10" d="M1736.23,976.7l19.28-5.33"/><path class="cls-10" d="M1731.19,965.16l17.61-9.49"/><path class="cls-10" d="M1724.21,954.41l15.19-13"/><path class="cls-10" d="M1714.57,944.5l12.75-15.42"/><path class="cls-10" d="M1703.26,937.77l9.88-17.39"/><path class="cls-10" d="M1693.43,934.3q.55-10,1.13-20"/><path class="cls-10" d="M1691.22,933.7q-4.89-10.56-9.79-21.14"/></g></svg>