<svg xmlns="http://www.w3.org/2000/svg" viewBox="0 0 1000 800"><defs><style>.cls-1{fill:#f15d4a;stroke:#f15d4a;}.cls-1,.cls-2,.cls-3,.cls-4,.cls-5,.cls-6{stroke-linecap:round;stroke-linejoin:round;stroke-width:4px;}.cls-2,.cls-4,.cls-6{fill:none;}.cls-2,.cls-3{stroke:#442257;}.cls-3{fill:#442257;}.cls-4{stroke:#fab550;}.cls-5{fill:#abdddf;}.cls-5,.cls-6{stroke:#abdddf;}</style></defs><g id="Layer_2" data-name="Layer 2"><path class="cls-1" d="M362.28,365.5c-1.84-5.66.44-16.62,1.45-22.47,1.66-9.67,12.18-54.17,15.08-66.69,2.44-10.52,4-17.46,11.38-18.65,9.84-1.61,31.05,3.6,44.58,7.18,6.52,1.73,20.81,4,22.61,10.84,2,7.51-4.11,35.25-6.9,45.5-4,14.54-6.94,28.81-10.89,43.32-2,7.41-2.71,14.59-11.47,15.6Z"/><path class="cls-2" d="M515.81,203l.38,3.12c-7.52-1.86-17.23-.8-16.13,9.17.93,8.46,10.17,8.29,16.84,6.21.25,8.67.27,17.34.21,26"/><path class="cls-2" d="M566.3,190.92c-.43-12.46-.92-25.63-3.28-37.35"/><path class="cls-2" d="M567.62,250s-.09-7.28-.23-16.32"/><line class="cls-2" x1="535.06" y1="182.78" x2="535.06" y2="179.06"/><path class="cls-2" d="M510.1,199.29c-1.45-3.14-2.6-13.2-3.28-18.36-.85-6.32-.68-13.09-1-19.43s-2.09-22.58,8-18c.17-10.18,23.46-8.51,29.45-8.91,5.65-.38,12.31-1.42,17.94-.38,3.27.6,10.2,4,4.29,7.14,3.79,1.68,4,6.17,1.89,9.21-3.95,5.82-14.27,3.1-18.61.45,3.74,6.35-2.38,11.26-8.55,11-5.1-.21-9.37-3.13-13.49-5.68,0,2.57,0,5.27-1.38,7.55-1.1,1.77-3.27,2.54-3.92,4.2-1.86,4.82-.42,13.56-.94,18.84-.43,4.36-.29,6.94-2.84,10.61C516,199.82,511.56,202.44,510.1,199.29Z"/><path class="cls-2" d="M569.07,249.86c-3.37.26-23.38,9.91-23.38,9.91s-27.41-7.89-29.52-12.28c.86,5.73,6.38,13.28,9.46,18.36a109.81,109.81,0,0,0,9.31,13.72c1.42-4.24,5.06-8.86,7.28-12.7,1.67-2.9,3.49-6.82,3.49-6.82s12.94,13.71,15.21,15.26a164.58,164.58,0,0,0,6.32-15.53A30.69,30.69,0,0,0,569.07,249.86Z"/><path class="cls-2" d="M518.06,282c5.84,9.54,23.09,10.37,32.35,9.41,9.49-1,14.92-5.87,21-12.24"/><path class="cls-2" d="M546.87,267.33c.9,7.43,1.09,24.11,1.09,24.11"/><path class="cls-2" d="M554.43,282.45A3.33,3.33,0,0,0,554,281"/><path class="cls-2" d="M622.44,305.59c1.92,4.52,2.41,9.39,3.52,14.08,2.54,10.63,2.81,22,4.43,32.77C638.16,404,641,456.19,645.79,508.05c.58,6.27,1.56,22.47,2,29.34A4.58,4.58,0,0,1,645,541.9a52.08,52.08,0,0,1-7.63,2.55,140.27,140.27,0,0,1-21.87,3.44c-9.37.91-18.42,1.78-29,2-2.8-48.87-4.53-97.65-8-146.52-3.64-50.95-7-102-7-153.06,8.74,0,11.81,1.75,16.19,12.59,3.23,8,5.39,17.84,9.72,25.06-1.45,2.47-13.15,7.92-14.54,9.47,10.14-1.2,14.4,2.51,14.1,9.27-.39,9-2.29,19.65-3.19,28.58-1.22,12-3.12,24.81-5.11,36.73-2.79,16.75-8.76,53.14-8.76,53.14"/><path class="cls-2" d="M583.24,254.61a80.52,80.52,0,0,1,20.54,3.86c6.27,1.92,11.08,5.61,14.07,13.1,9.69,24.21,20.14,37.82,25.27,63.78.41,2.1,3.92,8.2-.9,15.49-2.84,4.28-4.27-1.78-4.34-4.17-.12-4.14,1.47-9.13,5.46-11.17,5-2.55,8.17,7.46,9.89,11.18-2.32-4.22-6.86-10.67-7.09-15.64-.5-11,3.86-20.54,6.05-31,3.44-16.45,7.33-30.44,10.92-46.8,0,0,20.91,8.55,24.51,10.37,6.26,3.15,28,14.53,30,16-12.84,38.89-25.06,76.9-43.31,113.66-3.48,7-15.17,18.93-23.54,21.53a32,32,0,0,1-8,.92c-1.79-.09-5-.61-3.79-1.46"/><path class="cls-2" d="M596.71,320.45c3.39-.28,19.54.65,19.54.65s2.58,18.57,2.88,23.48c.29,4.63,1.51,9.49,1.35,14.06-9.36-.7-19.47-.49-28.67-.47"/><path class="cls-2" d="M597.41,309.12c4.82-.37,9.7.5,14.64.47"/><path class="cls-2" d="M603.44,319.51c0-2.6-.53-10.7-1-12"/><path class="cls-2" d="M597.05,357.05c1-4.24,3-9.51,7.19-9.52,5.76,0,9.78,9.38,9.86,10.15"/><path class="cls-2" d="M602.71,346.31c-5.66-2.11-6.7-9.49-.23-11.59,6.85-2.23,9,10.62,1.65,11"/><path class="cls-2" d="M604,428.39c11.41,2.41,23,9,32.59,15.59"/><path class="cls-2" d="M608.74,438.37a168.64,168.64,0,0,1,19.37,10.33"/><path class="cls-2" d="M507.71,428s-13,7.62-18.76,11.3c-4,2.58-8.72,5-12.28,8.21"/><path class="cls-2" d="M506.25,440.2s-12.14,5.81-17,9.45"/><path class="cls-2" d="M482.59,307.44c-.25,5.45-1.1,11.1-1.83,16.53-3.66,27.47-7,54.5-9.53,82.13-2.12,23-2.59,46.26-4.26,69.38-1.08,14.82-2.21,29.7-1.45,44.55.42,8-.57,17.27,1.05,25,5.09,4,13.81,6,20.38,6.64A297.6,297.6,0,0,0,529.79,553c-.43-6.16.48-13.88,1-20.19,1.16-13.85.91-27.64,1.48-41.61.48-12-1.71-23.6-1.92-35.58C530.11,442,529.18,428,528,414.29c-1.36-15.31-2.54-30.63-2.78-46-.15-9.41-2.65-42.33-3.35-49.62-1.23-12.72-6.3-59-7.61-68.85,0,0-3.34.11-6.49.26a6.38,6.38,0,0,0-5.64,4.11c-2.92,7.67-7.24,14.25-8,22.63-.6,6.4,8.22,12.77,12.21,17.76-4-3.27-11-7.66-12.29.72s6.44,29.2,9.58,38.79c6.69,20.45,23.14,80,24.41,85.38"/><path class="cls-2" d="M501.85,254.22c-14,2.9-26.39,11.47-32.58,19.89"/><path class="cls-2" d="M470.66,412.81c-2.15,4.09-10.65,6.89-14.94,6.63-5.23-.32-12.68-4-15.05-10.5"/><path class="cls-2" d="M666.79,253.11s2.52-12.25,4.63-17.83c8.13.46,20.29,5.18,27.55,8.67,5.81,2.79,14,7.37,19.59,10.27-1.61,4.86-6.78,22.06-6.78,22.06"/><path class="cls-2" d="M675.41,235.21a246.2,246.2,0,0,0,3.74-33.37c.37-13.52-2.21-27.4-2.92-40.92-.27-5.12-1.24-11.47,3.67-14.1s9.15-.54,11.63,4c2.37,4.32,9.7,24.26,9.7,24.26"/><path class="cls-2" d="M704.51,212.35c-3.83,0-11.1-6.52-4.39-11.83-8.12-1.32-7.45-12.64-1-12.68-2.4-1.56-2.49-6.84,0-10.09,5.12-6.68,30.28-12.57,35.65-4.78,1.06,1.67,2.43,5.29,1.65,7.41,5.62,2.22,5.62,6.82,3.26,10.79,6.33,3.43,2.47,12.11-2.57,14,2.57,2.35-.57,9-5.65,11.4C722.13,221,705.66,221.66,704.51,212.35Z"/><path class="cls-2" d="M723.71,219s-5.36,23.2-8.73,32.17"/><path class="cls-2" d="M699.11,187.84c4,.32,16.92-1.31,20.84-2.21,4.54-1,13-2.5,16.46-5.25"/><path class="cls-2" d="M700.12,200.52c8.24.62,17.73-1.51,25.66-3.56a71,71,0,0,0,13.89-5.79"/><path class="cls-2" d="M695.18,227.66c.76.49,1.6,1,2.36,1.41"/><line class="cls-2" x1="706.46" y1="295.2" x2="708.82" y2="295.67"/><line class="cls-2" x1="704.17" y1="305.35" x2="706.02" y2="305.72"/><line class="cls-2" x1="700.79" y1="315.04" x2="702.68" y2="315.51"/><path class="cls-2" d="M528,393.89c4.54,1.85,6,1,11.36,1.09,5.5.11,11.61-1.5,16.95-1.05,3.39.29,6.44,1.76,10.16,1.89,4.26.15,6.84-2.2,10.62-2.89"/><path class="cls-2" d="M557.26,437.37c.54,8.78.62,19.07,1,27.81.6,12.19.37,24.58-.15,36.79-1.08,25.62,0,51.74,0,77.49,0,18.14-.79,36.28-1.14,54.42-.32,17.37-6,79.69-6,79.69-6.26.77-31.65,1.55-38.61,1.55-8.35,0-22.66-1-30-1,0,0,1.6-35.83,1.58-47.63,0-23.18,1.91-38.71,1.91-61.86V565.71c0-4.33.47-12.52.47-12.52"/><path class="cls-2" d="M632.36,546c2.2,6.89,1.53,16.9.46,24-1.45,9.7-9,14.82-16,21.3A406.64,406.64,0,0,1,569.07,629c-2.24,1.54-12.14,8.87-12.14,8.87"/><path class="cls-2" d="M621.19,570.93c-2.11,2.73-3.09,6-4.72,9"/><path class="cls-2" d="M485,611.66l-24.9,20.54s5,16.16,6.35,21.88c3.24,13.14,8.85,22.61,11.89,35.82l5.12-2.73"/><path class="cls-2" d="M461.38,636.69c-6.58,5.77-16,10.41-23.36,15.55-2.4,1.67-9.23,6.59-9.23,6.59"/><path class="cls-2" d="M475.51,686.23c-3.4,2-34.79,21.2-34.79,21.2"/><path class="cls-3" d="M425.48,657l-10.75,4.2s10.87,52,12.75,58.47c1.95,6.73,2.65,18.14,10,20.3,1.9.56,21.41-.05,21.45-1.33.14-3.58,2-7.55-1.58-9.39-3.3-1.7-8.91,0-12.46-.58,0,0-5.32-24.57-9-35.8s-5.29-23.5-9-34.84C427.4,657.72,427.82,657.67,425.48,657Z"/><path class="cls-2" d="M442.48,710.43c4.76-1.42,12.85-5.8,17.5-3.86,3.95,1.65.67,5.13-2.26,7-3.86,2.53-9.42,3-13.89,3,4.12-.54,14.35-1.78,15.71,4.21,2,8.84-13.41-2.2-15.71-4.21"/><path class="cls-3" d="M565.4,740.94a36.78,36.78,0,0,0-.21-5.75c-2.8-4.78-10.28-2.15-14.66-1.87a323.12,323.12,0,0,1-36.56,0c-10-.48-19.28-1.79-29.38-1.14-.5,10.63,2.78,8.77,10.68,8.76H565.4Z"/><path class="cls-2" d="M486.41,729.63c-.49-1.35.35-12.8.53-14.25"/><path class="cls-2" d="M542.15,731.52c0-1.89,1-13.78,1-15.67"/><path class="cls-2" d="M545,732.23c3.92-6.51,7.19-20.62,16.15-21.36,3,5.53-2.07,12.85-7.19,15.18,2.58-3.74,10.72-7.45,15-6.47C571.12,728.18,551.44,733.1,545,732.23Z"/><path class="cls-2" d="M371.35,261.84c-4.4,1.42-12.77,5.81-17.63,11.07-6.91,7.46-11.21,16.82-14.39,26.32-5.95,17.75-5.8,33.57.28,51.29,1,2.93,4.93,12.79,9,10.61"/><path class="cls-2" d="M342.13,325.08c.51,5.33,3,22.6,7.64,24.62"/><path class="cls-2" d="M347.17,306.79c.35,5.84.63,25.73,6,28.51"/><path class="cls-2" d="M364.38,291.29c-3.42,3.17-3.13,7.83-1.86,12.33"/><path class="cls-2" d="M293.38,617.44,372.66,260.9a18.26,18.26,0,0,1,19.52-14.23,319.39,319.39,0,0,1,33.18,5.14,311,311,0,0,1,31.81,9.31,18.28,18.28,0,0,1,11.66,21.16L389.36,639.69"/><path class="cls-2" d="M402.92,247.08c2.26-5.75,4.18-12.8,4.18-12.8l42.1,9.56s-.39,8.08-3.13,13.28"/><path class="cls-2" d="M413.43,233.28c1.51-6.75,5.06-20.62,5.06-20.62,9.34,1.78,19.84,3.53,29.14,6.13-1.39,8.29-3.25,14.54-5.11,22.57"/><line class="cls-2" x1="433.66" y1="214.02" x2="453.76" y2="123.64"/><line class="cls-2" x1="348.97" y1="651.42" x2="333.99" y2="718.82"/><polyline class="cls-2" points="325.46 624.57 379.13 382.16 407.44 388.45 353.5 631.05"/><line class="cls-2" x1="306.18" y1="711.65" x2="320.95" y2="644.96"/><path class="cls-2" d="M272,632.22c3.47,2.53,8.12,3.1,12.86,4.19,20.11,4.64,40.14,9.64,60.28,14.14,13.81,3.09,27.2,6.33,41.06,9,10.94,2.14,22.49,3.75,23.39-6.18.88-9.75-16.75-12.83-26.26-15.16-19.69-4.8-39.71-9.65-59.52-14q-15.11-3.36-30.21-6.72c-5.31-1.2-14.27-3.63-19.6-2.75-6.57,1.08-8.28,6.89-6.13,12.09A12.15,12.15,0,0,0,272,632.22Z"/><path class="cls-2" d="M265,716.15c2.94,1.84,6.78,2.38,10.71,3.28,16.68,3.82,33.31,7.89,50,11.62,11.45,2.55,22.78,5.13,34.08,8.19,8.91,2.41,20.77,4.66,21.39-5.41.61-9.88-16.51-8.43-24.48-9.94-16.51-3.11-33-7.88-49.38-11.53q-12.53-2.79-25.05-5.57c-4.41-1-12.71-3.66-17.06-3.23-5.37.52-5.72,5.15-3.79,8.77A9.93,9.93,0,0,0,265,716.15Z"/><rect class="cls-2" x="390.42" y="337.84" width="12" height="82.77" rx="3.59" transform="translate(-59.8 683.88) rotate(-77.46)"/><path class="cls-2" d="M335.74,648.42c-2.86,9.54-16.6,66.71-16.6,66.71"/><path class="cls-2" d="M393.62,387.63c-11.14,45.2-21.28,97-31.36,142.31-4.39,19.74-15,69.31-21.6,98.1"/><line class="cls-4" x1="377.47" y1="337.17" x2="378.79" y2="342.45"/><line class="cls-4" x1="403.79" y1="314.19" x2="407.49" y2="312.52"/><line class="cls-4" x1="390.76" y1="296.25" x2="390.23" y2="298.62"/><line class="cls-4" x1="389.97" y1="272.75" x2="391.02" y2="275.48"/><line class="cls-4" x1="424.07" y1="287.41" x2="425.21" y2="286"/><line class="cls-4" x1="437.76" y1="271.79" x2="439.7" y2="270.55"/><line class="cls-4" x1="441.72" y1="283.62" x2="444.36" y2="286.7"/><line class="cls-4" x1="424.11" y1="303.66" x2="425.17" y2="306.39"/><line class="cls-4" x1="420.94" y1="334.07" x2="424.64" y2="332.4"/><line class="cls-4" x1="443.04" y1="313.35" x2="446.38" y2="313.26"/><line class="cls-4" x1="436.98" y1="323.32" x2="437.86" y2="326.84"/><line class="cls-4" x1="429.39" y1="365.52" x2="430.62" y2="367.45"/><line class="cls-4" x1="432.82" y1="353.81" x2="436.34" y2="352.93"/><line class="cls-4" x1="413.73" y1="350.71" x2="415.84" y2="348.68"/><line class="cls-4" x1="412.95" y1="367.53" x2="410.52" y2="367.44"/><line class="cls-4" x1="396.03" y1="339.81" x2="398.67" y2="342.89"/><line class="cls-4" x1="404.53" y1="326.54" x2="406.74" y2="327.14"/><line class="cls-4" x1="406.25" y1="297.22" x2="405.02" y2="295.28"/><line class="cls-4" x1="379.4" y1="321.15" x2="376.85" y2="321.42"/><line class="cls-4" x1="376.39" y1="310.06" x2="376.3" y2="306.72"/><line class="cls-4" x1="366.55" y1="353.81" x2="370.07" y2="352.93"/><line class="cls-4" x1="390.19" y1="360.76" x2="391.86" y2="356.97"/><line class="cls-4" x1="412.26" y1="278.14" x2="411.2" y2="275.41"/><line class="cls-4" x1="402.91" y1="264.04" x2="405.64" y2="262.98"/><path class="cls-4" d="M449.35,100.57c-.11-1.61-3.76-6.76-5-7.72"/><path class="cls-4" d="M464.67,99.15c.93-3.36,3.89-6.29,6.29-8.8"/><path class="cls-4" d="M477.56,110.75a16.09,16.09,0,0,1,10.37-1.92"/><path class="cls-5" d="M571.22,195.28c-3.29-7.05-13.25-5.11-20.54-4.94a74.77,74.77,0,0,0-25.08,5.16v0c3.16,4.68,3,15.8,2.73,21.62A58,58,0,0,1,526.82,229l-.3.88c7.42,2.82,14.64,5.29,22.63,5.62,5.11.21,12.38.65,17.25-1.34,3.58-1.47,6-3.86,6.68-7.68C574.85,217.21,575.31,204.05,571.22,195.28Z"/><path class="cls-2" d="M529.29,205.21a73.3,73.3,0,0,1,8.92-1.53"/><path class="cls-2" d="M528.36,220c1.42.37,7.59,2.42,8.78,3"/><path class="cls-6" d="M526.52,229.88c-2.51-.8-12.41-4.64-12.41-4.64"/><path class="cls-6" d="M513.81,202.09s6.58-4.58,11.79-6.6"/><line class="cls-2" x1="557.73" y1="181.37" x2="557.73" y2="177.64"/><path class="cls-2" d="M596.11,327.86c2.29,0,11.64.47,13.89.25"/><path class="cls-2" d="M704.51,212.35c4,.31,13.64-1.3,17.56-2.19,4.54-1,11.38-2.55,15-5"/></g></svg>